<mxfile host="app.diagrams.net" modified="2021-05-18T16:12:45.412Z" agent="5.0 (Windows NT 10.0; WOW64) AppleWebKit/537.36 (KHTML, like Gecko) Chrome/83.0.4103.116 Safari/537.36" etag="U9UpKp-kAii8YS52Ph5w" version="14.6.11" type="github">
  <diagram id="U__FN5Xc6xBBoOLqt65z" name="Page-1">
    <mxGraphModel dx="923" dy="334" grid="1" gridSize="10" guides="1" tooltips="1" connect="1" arrows="1" fold="1" page="1" pageScale="1" pageWidth="827" pageHeight="1169" math="0" shadow="0">
      <root>
        <mxCell id="0" />
        <mxCell id="1" parent="0" />
        <mxCell id="ZKgbiBXLcRlq5cuQc_4f-1" value="InputStreamReader" style="rounded=0;whiteSpace=wrap;html=1;" vertex="1" parent="1">
          <mxGeometry x="320" y="720" width="120" height="30" as="geometry" />
        </mxCell>
        <mxCell id="ZKgbiBXLcRlq5cuQc_4f-2" value="Reader" style="rounded=0;whiteSpace=wrap;html=1;" vertex="1" parent="1">
          <mxGeometry x="490" y="720" width="120" height="30" as="geometry" />
        </mxCell>
        <mxCell id="ZKgbiBXLcRlq5cuQc_4f-4" value="InputStream" style="rounded=0;whiteSpace=wrap;html=1;" vertex="1" parent="1">
          <mxGeometry x="320" y="780" width="120" height="30" as="geometry" />
        </mxCell>
        <mxCell id="ZKgbiBXLcRlq5cuQc_4f-6" value="FileInputStream" style="rounded=0;whiteSpace=wrap;html=1;" vertex="1" parent="1">
          <mxGeometry x="240" y="840" width="120" height="30" as="geometry" />
        </mxCell>
        <mxCell id="ZKgbiBXLcRlq5cuQc_4f-7" value="FilteInputStream" style="rounded=0;whiteSpace=wrap;html=1;" vertex="1" parent="1">
          <mxGeometry x="390" y="840" width="120" height="30" as="geometry" />
        </mxCell>
        <mxCell id="ZKgbiBXLcRlq5cuQc_4f-8" value="BufferedInputStream" style="rounded=0;whiteSpace=wrap;html=1;" vertex="1" parent="1">
          <mxGeometry x="390" y="900" width="120" height="30" as="geometry" />
        </mxCell>
      </root>
    </mxGraphModel>
  </diagram>
</mxfile>
